# xmcd CD database file
#
# Track frame offsets:
#	150
#	24525
#	45972
#	66975
#	89237
#	109877
#	137495
#	157600
#	176137
#	198927
#
# Disc length: 2934 seconds
#
# Revision: 2
# Processed by: cddbd v1.5.2PL0 Copyright (c) Steve Scherf et al.
# Submitted via: CDex 1.70beta3
#
DISCID=810b740a
DTITLE=Barbier - Barbier first
DYEAR=1996
DGENRE=Blues
TTITLE0=LOVE
TTITLE1=Can’t Leave You Now
TTITLE2=もう少し あと少し…
TTITLE3=Top Secret
TTITLE4=あなたに帰りたい
TTITLE5=I still remember
TTITLE6=今すぐ会いに来て
TTITLE7=Season
TTITLE8=見つめていたいね
TTITLE9=タイム
EXTD=YEAR: 1996
EXTT0=
EXTT1=
EXTT2=
EXTT3=
EXTT4=
EXTT5=
EXTT6=
EXTT7=
EXTT8=
EXTT9=
PLAYORDER=
